<?xml version="1.0" encoding="UTF-8"?>
<!DOCTYPE svg PUBLIC "-//W3C//DTD SVG 1.1//EN" "http://www.w3.org/Graphics/SVG/1.1/DTD/svg11.dtd">
<svg xmlns="http://www.w3.org/2000/svg" version="1.1" width="512px" height="512px" style="shape-rendering:geometricPrecision; text-rendering:geometricPrecision; image-rendering:optimizeQuality; fill-rule:evenodd; clip-rule:evenodd" xmlns:xlink="http://www.w3.org/1999/xlink">
<g><path style="opacity:0.972" fill="#030100" d="M 206.5,-0.5 C 239.167,-0.5 271.833,-0.5 304.5,-0.5C 379.62,12.1156 426.453,55.4489 445,129.5C 455.421,202.8 429.921,259.633 368.5,300C 358.5,305.251 348.333,310.084 338,314.5C 336.718,324.067 336.051,333.734 336,343.5C 331.167,367 317,381.167 293.5,386C 268.167,386.667 242.833,386.667 217.5,386C 194,381.167 179.833,367 175,343.5C 169.972,307.597 178.639,275.597 201,247.5C 215.986,231.916 233.819,220.75 254.5,214C 282.839,194.987 291.672,169.154 281,136.5C 275.777,124.113 267.277,114.78 255.5,108.5C 241,116.851 231.5,129.184 227,145.5C 226.144,156.634 224.478,167.634 222,178.5C 214.855,195.981 202.022,206.481 183.5,210C 157.167,210.667 130.833,210.667 104.5,210C 82.7792,205.279 69.2792,192.113 64,170.5C 62.149,150.31 64.4823,130.643 71,111.5C 73.1962,108.875 76.0295,107.875 79.5,108.5C 82.7874,110.127 84.454,112.793 84.5,116.5C 79.7118,133.184 77.8784,150.184 79,167.5C 82.8774,182.547 92.3774,191.547 107.5,194.5C 117.992,195.659 128.659,195.825 139.5,195C 138.956,194.283 138.289,193.783 137.5,193.5C 128.494,182.333 124.494,169.499 125.5,155C 129.806,91.833 159.806,45.6663 215.5,16.5C 216.289,16.2172 216.956,15.7172 217.5,15C 214.633,14.1993 211.966,14.3659 209.5,15.5C 159.797,22.3347 122.13,47.168 96.5,90C 93.5457,91.7186 90.5457,91.8853 87.5,90.5C 85.0677,89.1586 83.7344,86.9919 83.5,84C 93.7496,63.4054 108.083,46.0721 126.5,32C 150.459,14.405 177.125,3.57169 206.5,-0.5 Z"/></g>
<g><path style="opacity:1" fill="#834022" d="M 209.5,15.5 C 211.966,14.3659 214.633,14.1993 217.5,15C 216.956,15.7172 216.289,16.2172 215.5,16.5C 213.735,15.5386 211.735,15.2053 209.5,15.5 Z"/></g>
<g><path style="opacity:1" fill="#fed05a" d="M 271.5,15.5 C 332.871,11.7682 380.038,35.7682 413,87.5C 439.843,138.39 438.843,188.723 410,238.5C 390.207,268.281 363.373,289.114 329.5,301C 325.896,303.708 323.396,307.208 322,311.5C 321.667,321.167 321.333,330.833 321,340.5C 318.394,354.934 310.228,364.6 296.5,369.5C 289.391,362.541 284.558,354.208 282,344.5C 274.758,282.133 300.591,240.633 359.5,220C 389.37,198.391 398.87,169.891 388,134.5C 374.617,105.89 352.117,91.5567 320.5,91.5C 285.289,76.6788 254.456,83.0122 228,110.5C 214.491,127.026 208.158,146.026 209,167.5C 205.847,180.483 198.013,189.15 185.5,193.5C 174.239,183.397 169.239,170.73 170.5,155.5C 173.688,100.605 198.355,58.4386 244.5,29C 253.901,23.9036 262.901,19.4036 271.5,15.5 Z"/></g>
<g><path style="opacity:0.999" fill="#fb7b42" d="M 209.5,15.5 C 211.735,15.2053 213.735,15.5386 215.5,16.5C 159.806,45.6663 129.806,91.833 125.5,155C 124.494,169.499 128.494,182.333 137.5,193.5C 127.681,194.494 117.681,194.827 107.5,194.5C 92.3774,191.547 82.8774,182.547 79,167.5C 77.8784,150.184 79.7118,133.184 84.5,116.5C 84.454,112.793 82.7874,110.127 79.5,108.5C 81.6175,102.264 84.2841,96.2643 87.5,90.5C 90.5457,91.8853 93.5457,91.7186 96.5,90C 122.13,47.168 159.797,22.3347 209.5,15.5 Z"/></g>
<g><path style="opacity:1" fill="#fcc143" d="M 271.5,15.5 C 262.901,19.4036 253.901,23.9036 244.5,29C 198.355,58.4386 173.688,100.605 170.5,155.5C 169.239,170.73 174.239,183.397 185.5,193.5C 163.431,198.049 148.598,189.715 141,168.5C 139.391,110.544 162.891,66.0441 211.5,35C 229.995,23.7791 249.995,17.2791 271.5,15.5 Z"/></g>
<g><path style="opacity:1" fill="#fcc143" d="M 320.5,91.5 C 352.117,91.5567 374.617,105.89 388,134.5C 398.87,169.891 389.37,198.391 359.5,220C 300.591,240.633 274.758,282.133 282,344.5C 284.558,354.208 289.391,362.541 296.5,369.5C 273.625,373.649 258.792,364.649 252,342.5C 245.933,283.783 270.766,244.95 326.5,226C 354.334,206.891 366.167,180.391 362,146.5C 356.35,121.814 342.517,103.481 320.5,91.5 Z"/></g>
<g><path style="opacity:1" fill="#fb7c42" d="M 249.5,369.5 C 239.681,370.494 229.681,370.827 219.5,370.5C 204.342,367.51 194.842,358.51 191,343.5C 185.117,310.689 192.783,281.689 214,256.5C 226.688,243.399 241.854,234.232 259.5,229C 286.671,213.511 300.671,190.011 301.5,158.5C 300.444,134.888 290.777,115.721 272.5,101C 308.438,95.2527 332.938,109.419 346,143.5C 352.09,173.465 342.59,196.965 317.5,214C 272.058,228.767 245.224,259.601 237,306.5C 236.333,318.5 236.333,330.5 237,342.5C 238.501,352.829 242.667,361.829 249.5,369.5 Z"/></g>
<g><path style="opacity:1" fill="#b1572e" d="M 137.5,193.5 C 138.289,193.783 138.956,194.283 139.5,195C 128.659,195.825 117.992,195.659 107.5,194.5C 117.681,194.827 127.681,194.494 137.5,193.5 Z"/></g>
<g><path style="opacity:1" fill="#814022" d="M 249.5,369.5 C 250.043,369.56 250.376,369.893 250.5,370.5C 240.007,371.823 229.674,371.823 219.5,370.5C 229.681,370.827 239.681,370.494 249.5,369.5 Z"/></g>
<g><path style="opacity:0.971" fill="#020100" d="M 313.5,495.5 C 312.553,493.266 311.886,490.932 311.5,488.5C 314.563,482.703 317.396,476.703 320,470.5C 323.315,450.12 315.482,436.12 296.5,428.5C 277.065,423.967 262.899,430.634 254,448.5C 247.998,471.663 256.165,487.496 278.5,496C 282.5,496.333 286.5,496.667 290.5,497C 293.314,498.494 295.314,500.66 296.5,503.5C 296.054,506.64 294.721,509.307 292.5,511.5C 266.5,511.5 240.5,511.5 214.5,511.5C 189.308,504.504 175.975,487.837 174.5,461.5C 176.411,434.755 190.411,418.255 216.5,412C 242.5,411.333 268.5,411.333 294.5,412C 320.589,418.255 334.589,434.755 336.5,461.5C 336.344,473.803 332.51,484.803 325,494.5C 321.321,496.689 317.488,497.023 313.5,495.5 Z"/></g>
<g><path style="opacity:1" fill="#fb7b42" d="M 218.5,426.5 C 229.172,426.333 239.839,426.5 250.5,427C 231.925,449.974 231.925,472.974 250.5,496C 238.109,496.917 225.776,496.584 213.5,495C 193.89,485.88 186.723,470.714 192,449.5C 197.335,437.656 206.168,429.99 218.5,426.5 Z"/></g>
<g><path style="opacity:1" fill="#fbc043" d="M 296.5,428.5 C 279.048,446.418 276.881,466.084 290,487.5C 294.208,492.891 299.375,496.891 305.5,499.5C 302.889,501.579 299.889,502.912 296.5,503.5C 295.314,500.66 293.314,498.494 290.5,497C 286.5,496.667 282.5,496.333 278.5,496C 256.165,487.496 247.998,471.663 254,448.5C 262.899,430.634 277.065,423.967 296.5,428.5 Z"/></g>
<g><path style="opacity:0.999" fill="#fdcf5a" d="M 296.5,428.5 C 315.482,436.12 323.315,450.12 320,470.5C 317.396,476.703 314.563,482.703 311.5,488.5C 311.886,490.932 312.553,493.266 313.5,495.5C 311.062,497.267 308.395,498.601 305.5,499.5C 299.375,496.891 294.208,492.891 290,487.5C 276.881,466.084 279.048,446.418 296.5,428.5 Z"/></g>
</svg>
